/* XPM */
static char *result[] = {
/* columns rows colors chars-per-pixel */
"50 50 84 1 ",
"  c #010101",
". c #060708",
"X c #070909",
"o c #090B0B",
"O c #071113",
"+ c #0B1315",
"@ c #0D1619",
"# c #0E181B",
"$ c #121516",
"% c #111719",
"& c #111B1D",
"* c #131E21",
"= c #191E20",
"- c #162124",
"; c #192326",
": c #1B2629",
"> c #1E292D",
", c #1F2B30",
"< c #21272A",
"1 c #212B2E",
"2 c #222E31",
"3 c #282F32",
"4 c #253236",
"5 c #2B3235",
"6 c #273338",
"7 c #29363A",
"8 c #2C393E",
"9 c #323A3E",
"0 c #2F3C41",
"q c #303E42",
"w c #344146",
"e c #384247",
"r c #364349",
"t c #39464B",
"y c #3A494E",
"u c #3E4C52",
"i c #404F54",
"p c #425056",
"a c #45545A",
"s c #48575E",
"d c #4A595F",
"f c #4C5C63",
"g c #515E66",
"h c #505F68",
"j c #4F6066",
"k c #516067",
"l c #54646C",
"z c #59696F",
"x c #576770",
"c c #586770",
"v c #576870",
"b c #5B6B74",
"n c #5E6F78",
"m c #5F7079",
"M c #607076",
"N c #62737C",
"B c #657780",
"V c #677882",
"C c #6A7C85",
"Z c #6D7F88",
"A c #6E818A",
"S c #71848D",
"D c #748790",
"F c #768993",
"G c #798D96",
"H c #7B8F99",
"J c #7D919B",
"K c #81959E",
"L c #85989F",
"P c #8296A0",
"I c #8599A3",
"U c #899DA6",
"Y c #8CA0A7",
"T c #8DA2AC",
"R c #90A4AD",
"E c #92A7B1",
"W c #95AAB3",
"Q c #98AEB7",
"! c #97ADB8",
"~ c #9CB2BC",
"^ c #A1B6BF",
"/ c #A6BBC5",
"( c #ACC2CC",
") c #B4CAD3",
/* pixels */
"qMlkkllkfff8&jsaaupuuttt*0vjjdsasayuq*fapppuuuyyy;",
"c)TTIKJFSAAu;EYPJJFACBmm-l(!QETTTTUIk-TTIKJFDACVN2",
"dYSNVCVBNmc7-JHSVNbvxxxb-fWJIJJJGGCnp-KPHFSAZCmmb,",
"iUSclbcbccbw&SDbvvvvxxvm-sWAAVNmmblbp-AJJJDSCmmvv,",
"uPDmnbbbcbmu@CCxbbbbbnAC;uJvvvbbbnbma=lCJDCmbbbbn2",
"6vluaaafssfr#fhfffffffjf;6fsaaasapadu#yfffssffsfs:",
":,,::;*;>>>:*-::>:;;>,>>:;:;---@&---**&-*--&#-;:::",
"ZCVNml*FKGGDZCBmNN,pEJJHHDACNmf*GIGDGGZncbm,a~JFFA",
"Cnlvbf;JHJFSDDAZCC>k~JJFVNncvns;JJJHDCnnCCB:f!JGDA",
"AAmvba*SFVbvNACBNN>aJSHDBvvvcbf-GJCNblcBZVN>sTJJHD",
"CCVmba#CZlvvvNNNbb2umlcNVVncxns*FSllxxxllbN,uCbmmm",
"bbmmNf#bCbnnbmBNbN4wCbnbbnNNnmf#VCbmnbnnnbm40mbbnv",
"088804@40000q00660-,twwq8888007#80000q80087-;000w8",
"*,>>::>:--**@>---&---;-;#-1<:-*-*-*-*@>::;:-****-@",
"lUASACVNmbbu*TJHDZNnbblz:dEGJSAZHHADa=TIJSZCbbbvv6",
"fUHFAVNbbbnu*UIJHJ9 oX.. .o.ooX@JJFCa*TIJJFDCbvbn4",
"aPCccxxvxlni*JPJDC>             bNlca-PPJDCCCVbvb4",
"tJcxbvbcxNAa#FUDbb:             lccnp&FUAbcvcbbbn4",
"qZxbbbcbbNBa*CDvcn<   &3+%31<<:<lllnd&DAlvbvcbvbb6",
"#:::::2-:--*O--::>o   %1%*2>>>14-----+4*&#-;-#-;;#",
"trwrr7#dauiiuuytrr+   3iuutrrt8#kfsdsutuyry-7fuupy",
"DFDASl;!TPPHDZVNNN=   gUGFDSCVj;!TUIJHJFDDD2jEKPKF",
"CCCBNs-KPHFVcllllb=   aKZZNzlla;SCSDFDAZCVN>pJSNbn",
"mBBmbf;NCJHFZNcvcc=   o&$$$$+$o%CllNDSZCmvb2tJnlvv",
"bBBnnf-nvCASDACmnM-            +VnCFDABnbnN48Dbnbn",
"aaauiy&iayyupsasaa&            Xffljjfpappa>>faaaa",
"#---;-----**@&-&=-o   o%++%%%&%&:-*&&@--;--;--*&&#",
"f!PPKGSZCBNh*K~TIU5   tZ>fQJJDSSNmnnl;YUKJHFANmnc4",
"l~JDDSSCCmma=WRPGH5 . eC;fEJJDSAVvvbs;TUJFDSAVNNn4",
"fWNxcccnmmms*IUHGG2   eN:aTGGDSSANvnu&JIJHDSACNmb4",
"aJllvvccxxbs=JSbSB:   eC1uZnNVCCVBmbu*FVmADACNbvb4",
"uZnmnnbnnnmf*BmbbN<   %1+%1<<<<1vmmma-mnbbmmnnnnN4",
";887242-;:>>+44426+             >,>2:@,262,64,,,1%",
"iyrww8#sljfsw>778t+             pkaw0w007ta;>fappp",
"GCNCZl-^~WUKDAANNB: o..X...... oT!TJGFZmmmZ2f~UIII",
"lcCZBd-UIGGDAACNlb2uGSBMNCnnNms-KJDHDACxbxb,sIDSCn",
"ccnmBf*IIJABCNVNbn4uJBvxMnvmBmf*KNxAFAZbccm>iTBvvl",
"cnclmf*KTZbbcbbbbm40FbbbccbmNnf-CncbAFSNbcm2rJbcbn",
"lljlfp*Nmhljjlljjx62blljllljsha*jjffafmvljv28mllkk",
"#####@@###@#*O@@@@OO+@@#*#+@@##@&***##@@@@@OO@#+&*",
"rvasaaapuuu0*xclfuuuauua*rSbaasffsadw&zlkfdfpuywf7",
"v~JJJACNmnmf-WWTETTTTUJA;l/IJJFSACNNy-WTPPJGDCVBN6",
"dGDHDmvvxxba-IPPGSCAVnvb;dTAmBVVNNnc7*JUJDDnvclvc4",
"pNvmVCVnvxbs&LJVcvlllxvb:uYDblvvvvvcr&GAAJDvvcvvb4",
"yNvbbbnNNnNd&CVcnbnbnbnM>rDNlbvcbbbNp&NncCSnnnnbn4",
"7fhfauuuuupr&uauyuyyyyyp:>pu8wryyyup8#afspupiipup>",
"*----&#&=#&&-&#&%%@---**;;&*-*##&---;-::-*&#%&&&##",
"BNmnbs;KCNNMNnbbzb4dQGJGDDNmbbs*YWUJJSACNbN1fEGGDV",
"AAVNNf-TClvccccbvm:f~JJGDAACNNf-QUJJSSACBNN>j~JHFF",
"BNNbns-JPANncbbcvn;sWNAGSACNNms-UScSDSZCNnm1sEJJFV"
};
