/* XPM */
static char *result[] = {
/* columns rows colors chars-per-pixel */
"50 50 86 1 ",
"  c #010101",
". c #060708",
"X c #060809",
"o c #0A0D0E",
"O c #0C0F10",
"+ c #071113",
"@ c #0B1315",
"# c #0D1619",
"$ c #0E191B",
"% c #111415",
"& c #131719",
"* c #121B1E",
"= c #131E21",
"- c #162124",
"; c #192326",
": c #1A2629",
"> c #1E292D",
", c #21272A",
"< c #212B2F",
"1 c #222D31",
"2 c #282F33",
"3 c #253236",
"4 c #2A3235",
"5 c #273338",
"6 c #2A363A",
"7 c #2C393E",
"8 c #323A3D",
"9 c #2E3C41",
"0 c #313E43",
"q c #344146",
"w c #364349",
"e c #3A464B",
"r c #3B494E",
"t c #3E4C52",
"y c #414A4E",
"u c #404E54",
"i c #425056",
"p c #45545A",
"a c #48565D",
"s c #4A595F",
"d c #4C5C63",
"f c #505F67",
"g c #505F68",
"h c #4F6066",
"j c #516067",
"k c #54646C",
"l c #59696F",
"z c #576770",
"x c #586770",
"c c #576870",
"v c #5B6B74",
"b c #5E6F78",
"n c #5F7079",
"m c #606F76",
"M c #607076",
"N c #62737C",
"B c #657780",
"V c #677882",
"C c #6A7C85",
"Z c #6D7F88",
"A c #6E818A",
"S c #71848D",
"D c #748790",
"F c #768993",
"G c #798D96",
"H c #7B8F99",
"J c #7D919B",
"K c #81959E",
"L c #85989F",
"P c #8296A0",
"I c #8599A3",
"U c #899DA6",
"Y c #899EA8",
"T c #8CA0A7",
"R c #8DA2AC",
"E c #91A5AE",
"W c #8FA5B0",
"Q c #92A7B1",
"! c #95AAB4",
"~ c #98AEB7",
"^ c #97ADB8",
"/ c #9CB2BC",
"( c #A1B6BF",
") c #A6BBC5",
"_ c #ACC2CC",
"` c #B4CAD3",
/* pixels */
"0Mkjjkkjddd9*ddptpttrrew*9chdsapaprt0=spiiittttee;",
"x`RRIKJFSZZt;!UPJJFSCBBn-z_^^QWRWRYIj-RRIPJGDAZBn3",
"sTANVZVBBbc6-JGDVnbzzzcv-dQJPJJJGGZvu=KIJFSAZVNbv<",
"uUSvkxxvccvq*SFczzzzczcn-a!SACnnMvkvp=AJJGFACnbcc<",
"tPDnbvvvzcbt$CVzbcvvcnAV;tJcccvvxvvMp=kBJDZnvvvvb<",
"3cztpppddddw$dhddddgddgd;5dapppapppdt$tdddppdddpa>",
":<>::;=;>>>:=-;::>;:><>>;;;;---#*---===;=--=$-::;:",
"ZZVNnk=FJFGFZCBBBn>tWJJJGFAAnnd-GIGDGHAMvvn>p^JGFA",
"Vbkcvd:JGJFSSSAZCC>h/JJFVnbvcvd;KJHHDCvvCCB:d^HGDA",
"AAnzvp=SGVvcBCVVBn1pJSHFVccccvd=GHCNxxxBZVN>pWHJHD",
"CVVnvp*VCzzzzBBnvv1rnkvnCVnczbd$DDkzxxxxkvN>tCvnBn",
"vvnnnd$bVvbvvbBBvn3wVvbvvbnNbnd*BCvbvbbvbvN10Nvbcc",
"999793#1099909955q->ewq99999996*70090099976-;999q9",
"=<>>::>;---=#:=--*-=-;=-#*>>;=*==-===#:::;:;=====#",
"kUASACVBnvvt-TJGFCBnnnvv>d/JJGSSGHSDp=QPGDZVvvvcc5",
"dTGFABnbvvbt=YYJJJJGAnvb>d/JRWWWIJFCp=RIJJFDVvzvb5",
"tIVvczzczkBt*JJJDeq0uvxm:s!JZee0pNxxi=PPKDCCZBvcv3",
"tHczvccczBAp$GRDz    fvv:uPZu   :bxmi=HUZvxxxvvxv3",
"0ZzvvvcvcBBt*CSvkX   *xv20Bvy   2vkma=DZkxxxcvcvv6",
"*::;:>>-;---+;;;:     =>@*>:*   o==;=@1==*=;-$-:;$",
"ewwwe6$dttttttte0      0itet4   ,fpspueteee-7dttiw",
"DDSSDh;^WIPJDZBNv.     4JFDFs   u^IIPHGGDDF1dQJPKG",
"CCVVBp;JJHGVzkkxk.      iFNmr   2SZSGDZZZBn>iJSBvv",
"bVBbvd;BZJHFZNxck       .NCmu   <vkNDSZCbzv1eJvzxc",
"vBBbbd-bcCASSACNx.  %4   ,SSp   <NCGDZVbvvn39Fvvbv",
"dtpttt=tptrtpppsi   OuX   0k0   ;fkffaupppp::dpppp",
"$=;;-;--=-==#*===   .=*    =&   o;===#=;-;;;---==$",
"g^JPJGAZZNBh=K/EKX  %NV4   7v   3Vvbk;TUJJGGANNvx3",
"k/HDFSAZVNNp=~RIS.  %NNko   8.  4bzvp-RYJGDAAVNNb3",
"d!BzvvvvNMnp=IUJD.  %vvM<       4Czvt=JPJJFAAVNMv3",
"pHkzcxczcxvp=JDbV.  @kxx3X      4Zbbp$GBbZDAZNvcv3",
"tZbnbvvvbvNd-NMvx.  %vnn36&     1nbnp-nbcbnnbbbbn5",
";976313-::>>@3331   .>11$=*     @1>1>@1131163>11<$",
"uewqq6#akddaq>666.  opppttt;    ,jp09w996et:>dppii",
"GVNCZk=)/QUKDAACv.  &IYIJGGVo   e/YJGFZnnBV3d(IPII",
"kzZABs-UIJGDAACnd.  &DZMCZMZa   qIDGDAVzczv>pPDDZv",
"cvbbBd=PIJSVCNVNvp:5BBzzbvkbBdq#ZNzAFSZvccb<tWBzcc",
"vvzzNa=JRAcccvvvvn5wGvcvvxvnbbd:SmxvADSNccn1eJvcvv",
"gkkkdp=Bnghkhjkhgk3<vkkhgkkgdgp=dkddpdnckhk19nhkkd",
"$##$$#@$$$$**@####@@@##$=*##@#$#*=**$$##$##@@###*-",
"ekpapppittt9=zxkdtttpttp-wDvppsdsppp0*vkhdddirr0h6",
"c/PJJAVBnbnd;!!RQRRRRUJA;k)PJJFSAZVVr-!RPPJGDZVBn5",
"aGFGDnkczzvp-IIJGSZAVbcv;aRAnBBVNNnx6=JIJGSbzzzzx3",
"pnkbVZVbczvp*LJCczkkkzzv;uUDvkccxkkxe*FSAHDczzzzv3",
"rNcvxvnNNbMs=CVcvvvvvvvM>qDMkvcxvvvNi$NbvZDvbbbvn5",
"6dgdpttittpw$tittrtrtrri:<pt9qwrtrtu9$pdpttpititt>",
"==---*$*=***-****&$=;---;-=====#*---;-::===$&***$$",
"BBnbva;KCNNNMnvxlv3s~GHGDSNnvvp=T!UJHDAZnbM>dQGGAV",
"AACNnd-RZkkcxvvcvn>d/JJGDAZVNBd=~UJJDSAVVMN<d/JJGD",
"BNnvbd=JIANvvxxccv:p!NAFDACBNbd=USxSDSZZNvN<p!JJGV"
};
