/* XPM */
static char *result[] = {
/* columns rows colors chars-per-pixel */
"50 50 86 1 ",
"  c #000101",
". c #070708",
"X c #060809",
"o c #0A0C0D",
"O c #0B0F11",
"+ c #071113",
"@ c #0B1315",
"# c #0D1619",
"$ c #0E191B",
"% c #111416",
"& c #121719",
"* c #121B1E",
"= c #181C1E",
"- c #141E21",
"; c #191F21",
": c #162124",
"> c #192326",
", c #1A2629",
"< c #1E2A2D",
"1 c #202527",
"2 c #21272A",
"3 c #212B2F",
"4 c #222E32",
"5 c #253236",
"6 c #293236",
"7 c #273338",
"8 c #2A363A",
"9 c #2C393E",
"0 c #2E3C41",
"q c #313D42",
"w c #344146",
"e c #364449",
"r c #3A464C",
"t c #3B494E",
"y c #3E4C52",
"u c #404F55",
"i c #425056",
"p c #45545A",
"a c #48575E",
"s c #4A595F",
"d c #4C5C62",
"f c #505F67",
"g c #505F68",
"h c #4F6066",
"j c #516067",
"k c #54646C",
"l c #59696F",
"z c #576770",
"x c #586770",
"c c #576870",
"v c #5B6B74",
"b c #5E6F78",
"n c #5F7079",
"m c #607076",
"M c #62737C",
"N c #69777D",
"B c #657780",
"V c #677882",
"C c #6A7B85",
"Z c #6C7F88",
"A c #6E818A",
"S c #71848D",
"D c #748790",
"F c #768993",
"G c #798D96",
"H c #7B8F99",
"J c #7E919B",
"K c #81949E",
"L c #85989F",
"P c #8296A0",
"I c #8599A3",
"U c #899DA6",
"Y c #899FA9",
"T c #8CA0A7",
"R c #8DA2AC",
"E c #90A5AE",
"W c #92A7B1",
"Q c #95AAB4",
"! c #99AEB7",
"~ c #97ADB8",
"^ c #9BAFB9",
"/ c #9CB2BC",
"( c #A1B6BF",
") c #A6BBC5",
"_ c #ACC2CC",
"` c #B4CAD3",
/* pixels */
"qmkjjkkjddd0*ddpiyyyytee-0chddapaiyuq-spiiuyyyttt>",
"x`RRIKHGSZAy>WUPJJGDCBBn:k_~~WRRRTYId:WRIKJGDSCVB4",
"sTAMVZVBnbv8:JHSVnvczzzv:dWJIJJJHHZvi:PPHFSAZVnbv4",
"uUSvkxxvvzvw-ADvczzcczcn:dWAAVMnmxzvi:ZJJHFSCnvzc<",
"yJDnbvvvzvby$CCcbvvvvbAC>yJvccvvvvvmp-kBJDVnbvvvv<",
"7czyipdddddw$dhddddgddhd>7dppppppipdy$yddddpddddd<",
",4<,,>*><,<,-:>>,,>,<<<<>>>>:::#*:-:--->--:$$:>>>>",
"ZZVMnk-DJHHDCCBBnB<yEJJHJDAZMnd:GIGFGHZbvvn4i^JGDA",
"Cbzzvd:JHJDSSSAZCC<g(HHFBnbxcvd:JKHHGVbvVCB<g~HHDA",
"AZnzbp-SFVvvBCVVMb4pGDGFVczcvvd-HHCmxzxBZVM,pRHJHD",
"CVBnvp-CCkczcBBBbv4tbzvMVVnczvd*FSkkxxxkkvM<yVvnBn",
"vvnnnd#vVvbbvnBnvM5eVvbvvbMMbnd*VCvbbvbbbvM50Mvvcv",
"000905#50000000770-4rqeq0999008$9q000q99098:>0000w",
"-44,,>,>>>:*#<-:------->$-<,>--:-:---@<<,,,:-----#",
"jUASAZVBnvvy-TJHDCVBNVvv,d^YEJSSGHSDp:EIJSZCbvvcv7",
"dTHDABnbvvby-UUJHHDDmq>O o>9vJRIPPFCi-RIHJFDVvxxv7",
"iPCxczzczzbi-JPJFBVt.        =xZmMzvi-PPJDCVZBvcv7",
"rJxzxvxczMAp$FYSvv9            ivczbi-HUAvxccvvvv5",
"wZcvvvxvxBMi*ZDzms    1p<7p&   =kckmp-DAkzvzxvcvv7",
"$,,,,<4:>:::+::,<@    <3$*5:    =::::@4--$-,:$:>,$",
"eewee8$siyiyuyree*  .uutuyey;   qfpapyryree:9dyyir",
"FDDADk>~RIPJDZVMMx>tKYPKGGHZ&   N~IUPHHGDDD4dWKPKF",
"CZVBBp:JPJFVxkkxxn4dWZHKDCd*   .VCSDGDZZZBn4iJSBvv",
"bVBnva,BVJHDZMxkxv3aKait4o     &CkzMDAACnzv4tJvkxc",
"bMBnnd:bvVSADACnvm666        .3,VvAGDAVbvvn50Dvvvb",
"ppiyit*uiytyipaapa;        X=ey*sdjjddiippp,,dpppp",
"*:::::::-:--$$-->@     Oo@;:<,::::-:-$-::>>>>-:--$",
"d~KPKGSZZMBg-I/TU1   >kM4d!HGFFSCMvvj,TUJJHFABmnx7",
"j/JDFSAAVMMp:QRPG=  onBn<fWHJCvlvxxbp:RUJGDAZCMmv5",
"dQMzxxvvMmbp-IYJG=  %vvb<iYKZ.  5Vxvy-JIJJDAACMnv7",
"pJkzxxxxxvvp-JSvS=   tMm<rZv2 . 7Zbni-FBbZDAZMvcv5",
"yAnnnvvvmvMd-MMxm9   .6p<6u&    dnnni:nbvbnnvnnnn7",
",097544:,,4,@5554,             &4<<5,#<55448544<4$",
"yteww9$sjddpw<970y<O.        O6*ihp0ww008ey,<dpiii",
"GVMZZj:()WYJFAAMbV4dCq1&.o&3tMk:R~RJHDAnnnZ4d/UIII",
"kzZZBd:YIGGFAAVMzv4iIJZmMCMCZBd>PJDHDAVzvzv<pIDSVb",
"xvbbBd-PIJSVZBBMbb4tJnzznvzvMbp:JVkAFAZvczb4iWBzcc",
"vxvcbd-JYZvccxvvvn50FzvbvvvMMvd>ZvvvAFAnvvb4eJvzvv",
"jkjkdy-Bngkhgkjkhz74bjkhfjjhdgi-hhddignzhjk40nhkjh",
"$$$$$##*$$##-+####++@###=*$$@$*$*----###$$#++###=:",
"ecpppppyyyy0-xxkdyyypyyp-eSvpidddppaq*vkgdadiytwf7",
"c/PJJACVnbMd:QWEWRRRRUJA,k)IJHFSAZMBt-!RPPJHSZCMm7",
"sGDHDnkkzzvi:IIPJAZAVbvc,pRAnBBVMMvv7-JIJFDbzxzkx5",
"inznBZVnvzvp*LJVckkkkzzv,uUDvzzccccxe-HAZHDczxxzv5",
"tBcvcvnBnbms*CVcvvvvvvvm<wFvkvcvvvvMi*mbcZSbvbvbv7",
"8dgdpyyyyiiw*yiytyyyttyi,3iy0ewtttyu9$pdpiyiiiiyu<",
"--:::-#=:**-:***&*&->::->>-----#*:::,:,>:--$&***$$",
"BBnvvp>KCMMMmnvxxv5s!GHGDSBmvvi-TWUJJSAZnbm<dWGGSV",
"SAVBnp:RZkkcxvvxvb,d/JJGDAZVMBd-!YJHSSACVmM<f/JHHD",
"Bnnbbd:JIAMbvcxzzb,pQMZGDACBMbd-USvSFSZCMvM4pWJJGV"
};
