/* XPM */
static char *result[] = {
/* columns rows colors chars-per-pixel */
"50 50 84 1 ",
"  c #010101",
". c #060708",
"X c #060909",
"o c #0A0C0D",
"O c #0C0F10",
"+ c #071113",
"@ c #0A1315",
"# c #0D1619",
"$ c #0E191B",
"% c #111415",
"& c #131618",
"* c #111B1E",
"= c #141E21",
"- c #162124",
"; c #182326",
": c #1A2629",
"> c #1E292D",
", c #202527",
"< c #202C2F",
"1 c #222E32",
"2 c #292F33",
"3 c #253136",
"4 c #2A3134",
"5 c #273338",
"6 c #2A363A",
"7 c #2C393E",
"8 c #323A3D",
"9 c #2E3C41",
"0 c #313E42",
"q c #344146",
"w c #364349",
"e c #39464B",
"r c #3B494E",
"t c #3E4C52",
"y c #404E54",
"u c #425156",
"i c #45545A",
"p c #48575E",
"a c #4A595F",
"s c #4D5C63",
"d c #505F67",
"f c #505F68",
"g c #4F6066",
"h c #516067",
"j c #54646C",
"k c #59686E",
"l c #576770",
"z c #586770",
"x c #576870",
"c c #5B6B74",
"v c #5E6F78",
"b c #5F7079",
"n c #607076",
"m c #62737C",
"M c #657780",
"N c #677882",
"B c #6A7B85",
"V c #6D7F88",
"C c #6E818A",
"Z c #71848D",
"A c #748790",
"S c #768993",
"D c #798D96",
"F c #7B8F99",
"G c #7E919B",
"H c #81949E",
"J c #85989F",
"K c #8296A0",
"L c #8599A3",
"P c #899DA6",
"I c #899FA9",
"U c #8CA0A7",
"Y c #8DA2AC",
"T c #90A5AE",
"R c #92A7B1",
"E c #95AAB4",
"W c #98AEB7",
"Q c #97ADB8",
"! c #9CB2BC",
"~ c #A1B6BF",
"^ c #9DB5C0",
"/ c #A6BBC5",
"( c #ACC2CC",
") c #B4CAD3",
/* pixels */
"0njhhjjhsss6*saiuuttteee*9xggapipiry8=aiuuutttrrr;",
"z)YYLHGSZCVu-EPLHGAZBMbb-x(QWRYYYIIPh=RYLGGDSCBNM1",
"aUCmNVNMmvc6-GDANmcxlllc-sEGKGGGFDVcy-HKFSZCVNbvc<",
"yPZcjzzczlcq=ZAzllxxllxb-pECCNmbvckci=CGGFSCBbvlx<",
"tKAbvccczcbt#VNlccvccvCB;tGxxxcccccni=jMGSNbcclcc1",
"3lltiiisissw$sgsssssssfs;5spiiipiiiat#tssssisssss:",
":<>::;=;>>>:=-:::>;;:>>>:;;;---#*----==;==-=$-;;;;",
"VVNmbj=SHSDAVBMmmm<tRGGGFACBmbs-DLSADFVvccb<iWGDSC",
"Nvllcs;GFGSZAACVBB<g^GGSNmvzzcs;GHGFSBvcNBM>fQFDZC",
"CCblvi=CDMcxmVNNbb<iGCFSmxxxzcs-DFBnzlzMVMm>iYFGFS",
"BNMbci*NVjxxxmMmvc<tbjcbVNbzlvi=AAjjlzljjcm>tNcmMb",
"ccbbbs$cNcvvcvMmcm3wNcvczvmmvbs*NBcvvcvvvcm10mcccx",
"999793#39999999559->eqq99979996$70099079976-:99999",
"=<>>;>>>;--$#>=--=-=-;--#*>>;=*-=-===#>::::-=====$",
"jPCCCVMbvcvt=YGFAVNMbbcc>s!GGFSZDDZAi-TLGZVBcccxc5",
"sUDSCMbvccvt=ILGFFACVbcv:g!GIIILKHSNi=YLFGSANcxcc5",
"tLBzllllllvu=FKHAMmbczxc>aWDDVVmmnzzi=LLGAVNVMczc3",
"rGzlczczlmVi*SPAvlxczzzb>uLNczzzzzcvi=DLCxxlxcczc3",
"qVlccczczMMu*BAjfjjlcczj>7cjjjjsdshci=ACjlzxzcxcc6",
"$:::::1=:=;=@==....+:;:o  .-:>* . .--@1=*$=:-$-;;$",
"ewwwe5*suyytytt:    wi2    &rwo   2diyrrrer-7attue",
"AAACZf;EYLKFABVp    j^8    &Vj    mYHFFDAAA>hRGLHD",
"BBNMms;GLFSNljlkO   4Vo     a0   @ZAAAVVVMb1uGZNcb",
"bNMbvi:mBGFSVvlc2   ow      8:   2cnZZCVblc1eGcjxj",
"vmMvvs-czVCCACNMy    o      o.   uZAAZMcccn39Acccc",
"iiityr*iirrtiiiay.              Xpjdsauiiii>>siiii",
"$-------=-==#$=*;O              +-**=$----;;-====*",
"sQKKHDZVVmMg=J!YYk      +%      yNbvj;PPHGDDCmmcz3",
"j!GAAZZVNmmi-WYHGCo    .*0o    obclci-YPGDACCNmbb3",
"sWmzczzcmnbi=LIGDF2    %,i,    2ZMxvt=GLGFSZCNNbz3",
"iFjjzzzzxzci*GZcCVw Xo 63t0 .. yCbbvu=SNbVACVmcxc3",
"tVvmncccbcms-mmccccjzzzn30mkzzzzvcbbi=bvccbvbbcbb6",
"-966111-;:<:@3333156<111$$333135<1<3:#<331<93>><<*",
"urwqw7$ajhspq>669r->siiitteqwe9#tgi99q999wt;:fstuu",
"DNmVVj-~!RPHACCNbN1sELLLGFFAZAj-YQYGFSBMvMB3s^LGLL",
"jlVVms-PLFDAZCNblc1uGAVbBCMbMbs-GGSFAZMjljc>sLSABc",
"xcvvMs=LLGCNNmNmcv1tGmllcclvMvs=GNlCSCBcxlv<tYMlxl",
"czxlvs=GYVclcccccv30Flccxccbbcs;BvccCSCMccb1wGclcc",
"jjgjst=Mbfjfggjggl31cjjggjjgsft-gjsstgbxgjj19vjfjs",
"$#$$$$#$$$$$=@####++@##$=$##@$*$*=**=$#####++#$$*-",
"wliiiiiuttt9=lzjatttitti*wZciipssiia0*zjssisiteqs7",
"x!KGFCNMbvms-EEYETYYYLGV;j/LGGSZCBNmr-ERLGGFZVMMn6",
"aDAFAbjjllci-LLHDZVZNvxc>iYCbMNNmncc6=GLGSZvlxllz3",
"iblbNVVcxlci*JGNzjjjlllc;uIAcjxxxxxze*SZCGAcllllz3",
"emzczcbmncna*BNzcccccccn>wAnjcxxcccmu*nvzVZvvbvvc6",
"6sfsittuiyiw*tuttrtrrrru:<ut9qwrteti7*isiyyyttttu>",
"==--==#==***-****#*=;;--;;==-=$#===---:;-==$**=*$#",
"MMbvcp;HBnmmnbczkc2aEFFDAZmbcci=PEPGGZZVbvn<aTDFZN",
"CCBMbs-YVjjzzcczcb>s!GGDACVNmMs=WPGFZZCBMnm>s!GFFA",
"Mmbccs=GLCmcczzxxc;pEmCDZCVmbbs-PZcZSZCNmvm1iEGGDN"
};
