/* XPM */
static char *result[] = {
/* columns rows colors chars-per-pixel */
"50 50 85 1 ",
"  c #000100",
". c #010904",
"X c #070D0A",
"o c #001509",
"O c #011B0B",
"+ c #151214",
"@ c #002700",
"# c #00220E",
"$ c #00320D",
"% c #012610",
"& c #002B12",
"* c #003516",
"= c #003C19",
"- c #173624",
"; c #004110",
": c #00421C",
"> c #004A1E",
", c #004E21",
"< c #015123",
"1 c #005B26",
"2 c #015E29",
"3 c #27543B",
"4 c #00632A",
"5 c #006B2D",
"6 c #007627",
"7 c #007827",
"8 c #007529",
"9 c #00792A",
"0 c #046D31",
"q c #007331",
"w c #007E36",
"e c #037F39",
"r c #0F793C",
"t c #107A3D",
"y c #3B5E4A",
"u c #4E4249",
"i c #4A494A",
"p c #564C52",
"a c #594F54",
"s c #595E5B",
"d c #406952",
"f c #457157",
"g c #5B6E63",
"h c #6D6C6D",
"j c #736E71",
"k c #737775",
"l c #00862D",
"z c #008037",
"x c #008835",
"c c #018439",
"v c #008A3B",
"b c #00923E",
"n c #078F41",
"m c #399B63",
"M c #6C8476",
"N c #75877C",
"B c #4BA571",
"V c #4DAD76",
"C c #56A678",
"Z c #56AB7A",
"A c #739E85",
"S c #73B58F",
"D c #71B88F",
"F c #73B991",
"G c #7CBA97",
"H c #7CBD98",
"J c #888185",
"K c #9E9D9D",
"L c #83BF9D",
"P c #80C89F",
"I c #88C2A1",
"U c #B7DBC6",
"Y c #BADAC7",
"T c #BADDC9",
"R c #B2E1C6",
"E c #CBD6D0",
"W c #DEDCDE",
"Q c #CEE4D7",
"! c #C0EAD2",
"~ c #CEE7D9",
"^ c #D0E7DA",
"/ c #E6E9E7",
"( c #EEF0EF",
") c #F1F3F2",
"_ c #FFFFFF",
/* pixels */
"zzzzzzzzzwzqO &zzwzzzzzzzzzzzzzzzwc, .qczzzzzzzzzz",
"zzzzzzzzzzwv* :vwezzzzzzzzzzzezzzwc8 ozzwzzzzzzzzz",
"zzzzezzzzwzc* :vwzzzzzzzzzezzezzwzc5 oqzezzzzzzzzz",
"zzzwzzzzzzwc* :vwwzzzwzzzzzzzzzzzzc5 ozzwzzzwzzzzz",
"zzzzzzzzzwwv* :vwwzzzzzzzzzzzzzzzwc5 owzzzzzzzzzze",
"zzzzzzzzzwwc* :vwwzzzzzzezzzzzwzzzc5 owzwzzzzzzzzz",
"zzzwzzezzzwc* :vwwzzzzzzzzzzzzzzzwz5 owwzzzzzzzezz",
"zzzzzzzzzzwc* :vwwzzzzezzzzzzzzzzzc5 owzwzzzzzzzzz",
"wzwzzwzzwwwc* :vwwwwzzzzzzzzzwwzwwz5 owzwzzzzzzzwz",
"cccccccccczv* :vwccwzzzzzzzwlwwzwzvq ozczccccccccc",
"555555555554o #5558trrrrtrrrrtttr08= .455555555555",
"                  h_()))))))))))/+                ",
"################%XN______________-O########O   O##",
"czczzzxzzcczczzzc9D__JdVBBBCBBBBBczzczzzzzzc& 5czz",
"zwzwzwzwzwzwzzwzc6D__u@c8999q9777zzwzzwzwzwv: zzzw",
"wzwzzzwzzzwzzwzwc6F__a$neeccccczzzwzwzzwzzwv: qczz",
"ezzzzzzzzzezzzzzc8G__p$vwzzzzzzzzzzzzzzzzwwv= wzzz",
"zzzzzzzzzzzzzzzze8F__p$vwzzzzzzzzzzzezwzzzwv= qcwz",
"zzzzzzzzzzzzzzwzc6F__a$vwzzzzzzzzzzzzzzzzzwv: wzzz",
"zzzezzzzzzzzzzzzc6F__a$bwwwwwzwwzwwzzzzzzwwv: qcwz",
"zzzzzzzzezzzwzzzc8F__a*veeccccceewezzzzzzwwv= qcww",
"wwwwwzwwwwwwwwwwr8F__WE~^Q^QQQ^L9wwwwwwzwwwc= wzww",
"vvcvvcvvcvvcvvvvv9H____________Rxvvvvcvcvvcb= zvvv",
",,,,,,,,,<,,,,,<<;A__KgkMMMMMMNf>,><><<<,,<,. &<>>",
"                  j__i                            ",
". .....   ... ... k__s X...XX...      .. .... ....",
"wqwqwqz= <zqqwqqr6S__C8wwqqqwqqww#  <qwqwqqwqwqwqq",
"zzzzzzv, 8vzccczc6F__Zqceecczzzzv: Occzzzcczzzzzcc",
"wzwwzwv> 5cwzwewc6F__Z7ewzwwzzzwv= owzwzzzzzzwwzzz",
"zzzzzwv> 5czzzzzc8F__Z9czzzzzzzwv: owzwzzzzzzzzzzc",
"zzzzzwv, 5cwzzzzc6F__Z7czwwzwwwwv: Owwwzzzzzzzzzzz",
"zzzzzwv> 5cwzzeee6F__Z6zwzzwzwwwv= owwwzzzzzzzzzzz",
"zzzzewv, 5czzzzzc8F__QUTTTTTTTTY!y Owwwzzzzzzzzzzz",
"zzzzzwc, 5czzzzzc6L______________g owzzzzzzzzzzzzz",
"zzwwewv, 5zwzzwwz9mIGHHHHHHHHHHGP3 Owwwwwzwzzzwwzz",
"ccccczv< qvzccccccz7777777777777l= occcccccccccccc",
"5555558& =5555555550000000q000002o  >5555555555555",
"                                                  ",
"                                                  ",
"55555555555555O.455555555555555555555555& =5555555",
"xccccccccccczb=#vccccccccccccccccccccccv1 qvcccccc",
"wzzwzwzwwzwzwv=#vwwzwzzwzwzwzzwwwzzwzzzc1 8zeewzww",
"wzzzzzzzzzzwzv=#cwwzzzzzzzzzzzzzzzzzzzwc1 qcwzzzzz",
"zzzzzzzzzzzzwv=#vwzzzzzzzzzzzzzzzzzzzzwc1 qvzzzzzz",
"zzwzzwzzzzzzwv=#vwwzzzzzzzzzzzzzzzzzzzwv2 8cwzzzzz",
"zzzzzzzzzzzzwv=#vwwzzzzzzzzzzzzzzzzzzzwc1 qczzzzzz",
"zzzzzzzzzzzwzv=#vwwzzzzzzzzzzzzzzzzzzzzc1 qcwzzzzz",
"zzzzzzzzzzzzwv=#cwzwzzzwzzzzzzzwzzzzzzwc2 qzwwzzzz",
"zzzzwzzzzzzzwv=%vwwzzzzzzzzzzzzzzzzzwzwv1 qczzzzzz",
"zzzzzzzzzzzwzzOoqzzzzzzzzzzzzzzzzzzzzwwz= >zzzzzzz"
};
