/* XPM */
static char *result[] = {
/* columns rows colors chars-per-pixel */
"50 50 122 2 ",
"   c #010000",
".  c #0A0200",
"X  c #010709",
"o  c #060C0D",
"O  c #090C0D",
"+  c #150200",
"@  c #1B0501",
"#  c #1F0906",
"$  c #140C0A",
"%  c #141B1C",
"&  c #230501",
"*  c #2D0600",
"=  c #2D0903",
"-  c #3B0600",
";  c #340A03",
":  c #3C0C04",
">  c #36130D",
",  c #381610",
"<  c #191F21",
"1  c #272929",
"2  c #4C0300",
"3  c #440E04",
"4  c #490F05",
"5  c #5B0500",
"6  c #5F0D00",
"7  c #4E1005",
"8  c #531105",
"9  c #5B1206",
"0  c #620D00",
"q  c #661507",
"w  c #691507",
"e  c #671508",
"r  c #6E1708",
"t  c #771808",
"y  c #7B1A09",
"u  c #6D1E11",
"i  c #542017",
"p  c #6E2114",
"a  c #494241",
"s  c DimGray",
"d  c #960C00",
"f  c #831B09",
"g  c #8C1D0A",
"h  c #921400",
"j  c #941F0A",
"k  c #9D1F09",
"l  c #A41500",
"z  c #A81700",
"x  c #A51C04",
"c  c #A81E06",
"v  c #A61F08",
"b  c #A81F08",
"n  c #B71500",
"m  c #8E210E",
"M  c #9E210B",
"N  c #962613",
"B  c #992A17",
"V  c #9B2C19",
"C  c #A6220B",
"Z  c #A9230C",
"A  c #B3250C",
"S  c #BA260D",
"D  c #B9280F",
"F  c #A92711",
"G  c #A22914",
"H  c #AB2B15",
"J  c #AC2E19",
"K  c #B52D16",
"L  c #AD311B",
"P  c #B73119",
"I  c #AF3622",
"U  c #B33E2A",
"Y  c #C0270D",
"T  c #B74A38",
"R  c #B84D3A",
"E  c #BF5D4C",
"W  c #A7665B",
"Q  c #B27D74",
"!  c #C67263",
"~  c #CA796B",
"^  c #E27967",
"/  c #CE8B7F",
"(  c #9A9898",
")  c #9CA8AA",
"_  c #A1A0A0",
"`  c #A5A8A9",
"'  c #ADAAA9",
"]  c #BAAEAC",
"[  c #B5B3B3",
"{  c #B6B8B8",
"}  c #BBB9B9",
"|  c #D49489",
" . c #D5988D",
".. c #DCA69D",
"X. c #DFACA4",
"o. c #CCB0AB",
"O. c #CCBBB8",
"+. c #D4BEBA",
"@. c #E2B4AD",
"#. c #E5BFB8",
"$. c #E6C2BC",
"%. c #E9C2BC",
"&. c #D6CFCE",
"*. c #DCD9D9",
"=. c #E8C6C0",
"-. c #E9CAC5",
";. c #ECCFCA",
":. c #EFD8D5",
">. c #F3E2DF",
",. c #E3E2E2",
"<. c #EDE4E3",
"1. c #EEECEC",
"2. c #F5E6E3",
"3. c #F6E8E6",
"4. c #FFEBE7",
"5. c #F3EEED",
"6. c #F9EDEB",
"7. c #F9F0EE",
"8. c #EAF0F1",
"9. c #F4F2F2",
"0. c #FBF6F5",
"q. c #FFFFFF",
/* pixels */
"Z Z C Z Z C C C C C Z M &   : Z Z C Z Z C Z Z Z Z C Z C F C Z Z C C Z w   . M Z C Z Z Z Z Z Z Z Z C ",
"Z Z Z Z Z C F C Z Z C A 3   9 A C Z Z Z Z Z C F Z Z Z Z Z Z Z C Z C A j   @ C Z C Z Z Z Z Z Z Z Z Z ",
"Z Z Z C C Z Z Z Z C C A 3   8 S C C Z Z C Z Z Z C Z C C F C Z Z C C Z g   @ C Z C Z Z C Z Z Z Z C Z ",
"Z Z Z Z Z Z Z C C C C A 3   8 A C C Z C Z Z C F Z Z Z Z Z Z Z C Z C A g   @ C Z Z C Z Z F C Z C Z Z ",
"C C Z C Z Z Z C Z C C Z 3   8 A M C F Z Z C Z C Z Z Z Z Z Z Z Z Z C Z g   @ C Z C Z Z Z Z C Z Z C C ",
"C Z Z Z C Z Z Z Z C C A 3   9 S C C C Z Z Z Z Z Z Z Z Z Z Z Z Z Z C Z j   @ C Z C Z C Z C C C Z F C ",
"F Z Z Z Z Z C F Z C C A 3   8 A C C C Z C Z C C C Z F Z C Z Z Z Z C Z g   @ C Z C Z Z Z C Z Z Z Z Z ",
"Z Z Z Z Z Z Z Z Z Z C Z 3   9 A C C Z C Z Z Z Z Z Z C C C Z Z C Z Z Z g   @ C Z C Z Z C C F C Z Z Z ",
"C Z Z C Z C C C C C C Z 3   8 A C Z C Z C C C Z C C Z Z C Z C Z Z Z Z g   @ Z Z C C C Z C C C Z C Z ",
"Z Z Z Z Z Z Z A Z A Z S 3   9 S v c C Z Z A Z Z Z Z A Z Z Z Z Z c b A j   @ Z Z Z A Z Z Z A Z Z Z Z ",
"g g j g g j g g g g j f @   * g B B V j g g g g g g g g j g g N V B j 7   . f g g j j g g g g g g g ",
"                              X *.0.q.[                       _ q.,.O                               ",
"= = * = = = * = = = * ; = = * > 1.q.q.q.s     # = = = = = = & ] q.9., * = ; = * = = = @       = = = ",
"Z Z Z Z Z Z Z Z Z Z Z Z Z Z b H 2.q.0.q.9.% - A Z Z Z Z Z Z c @.q.6.J Z Z Z Z Z Z Z Z A :   g Z Z Z ",
"Z C Z Z Z v C Z Z Z C C Z Z v H 3.q.q.q.q.) 2 S C Z C C Z Z z @.q.7.J v Z Z C Z Z C C A 8   C Z Z C ",
"Z C C C Z Z Z C C C Z C Z C C H 3.q.;.$.q.q.W l F C Z Z Z Z x @.q.6.J v Z Z Z C C Z C A 4   C Z Z C ",
"C Z C Z Z Z Z C Z Z Z C Z Z C H 2.q.@.U 9.q.>.L v Z C Z Z C v @.q.7.J v Z Z C Z Z Z C A 4   C Z C Z ",
"Z Z Z Z Z C Z F Z C Z Z Z C v H 2.q.=.l | q.q...l Z C Z Z Z x @.q.7.J v Z Z Z Z C C C A 8   C Z C Z ",
"Z C Z C C Z C C C Z Z Z Z Z v H 2.q.$.v C &.q.q.E l F Z Z Z x @.q.7.J v Z Z Z Z Z F C A 8   C Z C Z ",
"Z Z Z F C Z C C C Z Z Z Z Z C F 2.q.%.Z h a q.q.:.F C Z Z Z x @.q.7.J v Z Z Z C Z C Z A 7   C Z C Z ",
"Z C C F Z Z Z C C C C F C C C H 2.q.$.c C   ( q.q.| l F Z C C @.q.7.J v Z C C C Z Z C A 8   M Z C C ",
"C C C Z C Z C C C C C C C C v H 2.q.$.v C   i 4.q.q.R l C C k @.q.7.H C C C C C C C C A 8   C C C C ",
"A A A Z A A A A A A Z A A A A K 2.q.%.A C X 2 ^ q.q.-.Z A A c @.q.7.P Z A A A A Z A Z Y 7   C A A Z ",
"e e w w e q q q q w e e q q q u <.q.+.w :   @ 6 O.q.q.Q 5 t 0 o.q.7.p q e e e e e q w q +   : w q q ",
"                              X ,.q.{       X   1 9.q.8.<     ` q.1.o                               ",
". . . . . . .       . . . . . $ ,.q.} . . . . .   ( q.q.[     ' q.1.O     . . . . . . . .   . . . . ",
"M M C M M M C 7   w C M M C k G 2.q.$.k M M M M k M :.q.q.! d @.q.1.O   r M C M M M C M M M M M M C ",
"Z Z C Z Z Z D w   j A Z Z Z C H 2.q.%.Z Z Z Z Z C l E q.q.6.J X.q.5.O @ Z Z C Z Z Z Z Z Z Z Z Z Z Z ",
"C C C C Z M A q   g Z C Z C C H 2.q.$.C C Z C C Z Z l X.q.q...@.q.5.O + C Z C C Z Z C C C Z C C C C ",
"Z Z Z Z Z C Z q   g Z Z Z Z C F 2.q.$.v Z C Z Z Z Z C I 6.q.q.q.q.8.o + C Z C Z Z C Z Z C Z Z Z Z Z ",
"Z Z C Z Z Z A q   g Z C Z C C H 2.q.$.v Z Z Z Z Z Z F d ~ q.0.q.q.9.o + C Z C Z Z Z Z C C Z C Z Z Z ",
"Z C Z Z Z Z A q   j Z C Z Z v H 2.q.$.C C Z Z Z Z Z Z Z x =.q.q.q.9.o + C Z C Z Z Z Z Z Z Z Z Z Z Z ",
"Z Z Z C Z C A q   g A C Z C C F 2.q.#.C Z Z Z Z Z Z C Z x T q.q.q.1.o + C Z C Z Z Z C Z Z Z Z Z Z Z ",
"Z C C C C C A q   g Z C Z Z Z H 0.q.;.v Z Z Z Z Z Z Z Z C l | q.q.q.O + C Z C Z Z Z Z Z Z Z Z Z Z Z ",
"C C C C Z C A q   g Z C C Z C Z ~  .! Z Z Z C C C Z C C Z v H / | Q X @ C Z C Z C Z C C C Z C C Z Z ",
"A Z A Z Z Z S w   m S Z Z A Z Z z l z Z Z Z Z A Z Z Z Z A Z Z l n 2   @ Z A Z Z Z Z Z A Z Z Z Z A Z ",
"m g g g g g j :   7 g g g g g g m m m g g g g j g g g g g g j m u &     9 g g g g g g g j g g g g g ",
"                            .                                     X                                 ",
"                                                                                                    ",
"g g g g g g g g g g g g g g @ + y j g g g g g g j g g g g g g g g g g g g g g g :   8 g g g g g g g ",
"A Z Z Z Z Z Z Z Z A Z Z Z Y 7 ; D Z Z Z A Z Z Z A Z Z Z A Z Z Z A Z Z Z Z Z Z S t   C A Z Z Z Z Z Z ",
"C Z Z C Z C Z Z C C C C C A 7 ; A C Z Z C Z C C C C C C C C Z Z C Z Z v Z C C Z t   j Z Z Z Z Z C C ",
"Z C Z Z Z Z Z Z Z Z Z C Z S 3 ; A C C Z Z Z Z Z Z Z Z Z Z Z C F Z Z Z Z Z Z C A t   k Z C Z Z Z C Z ",
"Z Z Z Z Z Z F C Z Z Z Z C A 4 ; A C C Z Z C Z Z Z Z Z Z Z Z Z Z Z C Z Z Z Z C A t   k Z C Z Z C Z Z ",
"Z Z Z Z Z Z Z C Z Z Z Z C D 7 ; A C C Z Z Z Z F Z Z Z Z Z C Z Z Z Z Z Z Z Z C A t   j A C C Z Z Z C ",
"C Z Z Z C Z C C C C Z Z M A 3 ; A C C Z C C Z C Z Z Z Z Z Z Z C Z Z Z Z Z C C Z t   k Z Z Z Z Z Z Z ",
"Z C Z Z Z Z Z Z C C Z C Z A 3 ; A C C Z Z Z Z Z C C Z C Z C Z Z C Z Z Z Z Z C A t   j Z C Z Z Z Z Z ",
"Z Z Z Z Z Z Z Z F C Z Z C A 7 ; A C Z C C Z C Z C C Z Z Z F C C Z Z Z C Z Z C A t   j Z C C Z Z Z Z ",
"Z C C C Z Z C F Z Z C Z C D 4 ; A C C Z Z C C C C F Z Z Z C Z Z Z C Z Z C Z C Z t   M Z Z Z C Z Z Z ",
"Z Z C C C Z Z Z Z C Z C Z Z = + M Z Z C Z C Z C Z Z Z C Z Z Z C Z Z C Z Z C Z Z 7   9 Z Z Z Z Z Z Z "
};
