/* XPM */
static char *result[] = {
/* columns rows colors chars-per-pixel */
"50 50 122 2 ",
"   c #000001",
".  c #04050C",
"X  c #07090F",
"o  c #0A0B0E",
"O  c #100F0D",
"+  c #050710",
"@  c #070913",
"#  c #090C1C",
"$  c #141418",
"%  c #0B0F23",
"&  c #0C1127",
"*  c #0D132B",
"=  c #10162E",
"-  c #181B2D",
";  c #101735",
":  c #141B3E",
">  c #393831",
",  c #161E45",
"<  c #18224E",
"1  c #1A2554",
"2  c #15225B",
"3  c #1D285C",
"4  c #292F4A",
"5  c #303551",
"6  c #192971",
"7  c #202D67",
"8  c #212E69",
"9  c #23316E",
"0  c #253374",
"q  c #27367B",
"w  c #28377B",
"e  c #2C3B7D",
"r  c #525047",
"t  c #45495E",
"y  c #535350",
"u  c #77787B",
"i  c #1F3181",
"p  c #2A3982",
"a  c #2C3C89",
"s  c #273A94",
"d  c #2E3F90",
"f  c #3D4981",
"g  c #2F4295",
"h  c #32459C",
"j  c #3347A2",
"k  c #3549A4",
"l  c #3A4FB4",
"z  c #3A50B5",
"x  c #3C52BB",
"c  c #505983",
"v  c #5E699A",
"b  c #344FC5",
"n  c #3E56C3",
"m  c #415ACC",
"M  c #445ED5",
"N  c #455FD8",
"B  c #4660D5",
"V  c #4761DB",
"C  c #4763E0",
"Z  c #4965E4",
"A  c #4966EE",
"S  c #4C69ED",
"D  c #4E6BF2",
"F  c #4566FE",
"G  c #4768FE",
"H  c #4C6CFE",
"J  c #526FF5",
"K  c #506FFB",
"L  c #4D70FF",
"P  c #5371F6",
"I  c #5975F6",
"U  c #5271FF",
"Y  c #5977FF",
"T  c #5A7BFF",
"R  c #657CE9",
"E  c #647EF5",
"W  c #627EFF",
"Q  c #7A84B0",
"!  c #5D81FF",
"~  c #6681FE",
"^  c #6984FE",
"/  c #758EFE",
"(  c #7D92F0",
")  c #7791FF",
"_  c #7C94FE",
"`  c #97999F",
"'  c #9F9F9F",
"]  c #868BA0",
"[  c #BBBCBD",
"{  c #C2C0B8",
"}  c #8897DB",
"|  c #B7B9C2",
" . c #8094F1",
".. c #8A9DF5",
"X. c #8A9FFF",
"o. c #8FA1F4",
"O. c #8EA2FE",
"+. c #94A7FD",
"@. c #9CAEFE",
"#. c #A6B6FF",
"$. c #ACBAFD",
"%. c #B4C1FD",
"&. c #BAC6FD",
"*. c #BCC8FF",
"=. c #C3C3C1",
"-. c #D0CFCD",
";. c #D3D3D6",
":. c #E0E0DD",
">. c #D3D8EE",
",. c #C2CDFD",
"<. c #CCD5FE",
"1. c #D4DCFE",
"2. c #D8DFFE",
"3. c #DCE2FF",
"4. c #DFE8FF",
"5. c #E9EAED",
"6. c #EAEEFF",
"7. c #EFF1FE",
"8. c #FFFEF5",
"9. c #F3F5FE",
"0. c #F6F8FF",
"q. c #FEFFFE",
/* pixels */
"U U U U U U U K U K U S ;   1 U H U U U U U U U U U U U K U U U U U P k   # S U U U U U U U U U K U ",
"U U U U U U U U U K U Y 8   a T K U U U U U K U U U U U U U U U U U U V   * U U U U U U U U U U U U ",
"U U U K K U U U U U H T 7   p T K K U U U U U U U U U U U U U U U L U M   & K U K U U K K U U U U U ",
"U U U U U U U U U L U U 8   p T K K U U U U K U U K U U U U U K U U U B   & H U U U U U U U U U U U ",
"U U U U U U U U U K K Y 7   p T K U U U K U U U U U K U U K U U U H Y M   & H U K U U U U U U U U K ",
"K U U U U U U U U U K Y 8   p T H U U U U U U U U U U U U U U U U U U B   & P U K U U U K U U K U U ",
"U U K U U U K U U K U U 7   p T K U U U U U U U U U U U U K U U U U U M   & U U U U U U U U U U U U ",
"U U U U U U U U U L U T 7   p T K K U U U U K U U U U U U U U U U L Y N   & D U U U K U U U U U U U ",
"K U K U L U K U H U J U 7   p T D L K U U K U U U U P U P K U K H U U M   & H U L U L U U U U H K U ",
"Y U Y U U Y Y U Y U U T 8   a T U Y U U Y Y H G G H H H U T U Y Y U T V   & U Y U U Y U U U U Y Y U ",
"N N N N N N N N V B V n &   : M B V V M b V R ( ....( R m l M N N M C w   @ n V B B B B B B N N N N ",
"                                      o u ;.8.q.q.q.q.9.;.Q $                                       ",
", , , , , , , , < : , , , , < , , , 5 -.q.q.q.0.0.0.q.q.q.q.:.t : , , , , < , , , , < *     . : , , ",
"U U U U U U U U U U U U U U U U U Y 4.q.q.{ Q _ ^ ^ _ @.3.8.q.q.W U U U U U U U U U U P 3   m U U U ",
"U U K U U U K U U L U U U K U U F @.q.q.,.  6 Y H H H G U #.q.&.H U U U U U U U U L U T e   K U U K ",
"U K U K U K U K U U U K U U U U H <.q.0.E   e T K P U U K H X.T H U K K U K H U U U D T w   D U K U ",
"U U U U U U U U U U U U U U U U U 2.q.6.P   w T K U U K U U G K U K U U U U U U U U K T q   D U K U ",
"U K U U U U U U U U U U U U U U K 1.q.9.I   w T H U U U U U U U K U U U U U U U U K H T q   H Y K U ",
"U U U U U U U U K U K U U U U U G &.q.q.o.  w T P U U U K U U U U U U U U U K U U U K T w   J U U U ",
"U U U U K U U U U U U U U U U U G _ q.q.0.r q L H H U U U U U U U U U U U U U U U K K T w   D U K U ",
"U U U U U U U U U U U U U U U U Y G %.q.q.q.>.#. .T H G H U U K U U U U U U U U U K H T q   D U U U ",
"H K K K L H K K K K U H L H U D U K U $.q.q.q.q.q.9.<.#./ H H U L H K K K K L H K K D T q   D U H K ",
"Y T T Y T T U T T Y Y T Y Y T T Y T Y L / ' 5.q.q.q.q.q.0.1.) H T T T Y T Y T Y Y T Y ! 0   K T Y T ",
"h h h h h h h h g h h h h h h h h h h j 2   - v ] | 5.q.q.q.q.} s h g h h h h h h h h g %   3 j g h ",
"                                                    O y =.q.q.8.>                                   ",
"+ . + X . + +       . + + . . X . + + . X . . X X .     . ` q.q.[         . + X + . X . . . + . + + ",
"D D D D D S U 0   k K S D D D D D J J S D D D D D D J J A S 6.q.0.4   . k S D D D D D D D D D D D D ",
"U U U U U U T j   V Y U U U U U U K H U U U U U U U U U Y H ,.q.q.c   = Y U U U U U U U U U U U U U ",
"U K U K K K T h   M Y K U K K U H T / G U U U U U K K U U H *.q.q.c   * D U K K U U K U K U K U K U ",
"U U U U U H T g   N U U U U U U K <.9.W G U U U U U U U U H 3.8.q.f   * K U U U U U U U U U U U U U ",
"U U U U U K Y h   N Y K U U U G O.q.q.3.W G H U U U U U F X.q.q.4.p   = H U U U U U U U U K U U U U ",
"U K U U U H T g   N U U K U U K T 3.q.q.9.@.W K H H H Y +.0.q.8.+.i   * K U K U U U U K U U U U U U ",
"U U U U U L T h   N Y L U U U U H ~ 3.q.q.q.9.1.,.,.<.6.q.q.q.%.U p   * H U U U U U U U U U U U U U ",
"U U U U U P Y g   N U K U U U K U H U #.7.q.q.q.q.q.q.q.q.9.@.H T e   * J U U U U U U P U U U U U U ",
"U U K K U L Y g   N U U L U U K U U H G T O.%.<.1.1.<.*.+.T G K T p   * J L K U U H U U L U U U L U ",
"U U U Y U U T k   C T U Y U Y U U U Y Y U G H U T U Y H H L Y U T p   * U U Y U U Y U U Y U Y U Y U ",
"M M N M M M V 3   q M N M M M M M M M M B B B N M M N B B B N N x *     a M N N N N M N M M M M N N ",
"                            .   .                                                                   ",
"                                                                                                    ",
"B M V M N M N M N B M N N m * # x N N M M N M M N M N M N N N M N M N N N M N M 1   q M N M N N M M ",
"U Y Y U Y U U Y U Y Y U U ! 9 1 T U Y Y U U Y U Y U U Y Y U U Y U Y U Y U U U T x   D Y U Y U U Y U ",
"L U H U H U U K U L K U H T 9 < T H L U U U K U H U L K L K U K U L U L U U D Y z   C U U L U U K K ",
"U U U U U U U U U K U K L T 9 < Y K K U U U U L U U U U U U U U U U U U U U K Y z . Z Y H U U U U U ",
"U U U U U U K U U U U U J T 9 < T K K U U U U U U U U U U U U U U U U U U U H Y z   Z U U U U U U U ",
"U U U U U U U U U U U U K T 9 < Y H U U K U U U U U U U U U U K U U U U U U H Y z . Z U U U U U U U ",
"U U U U U U U U U U U U K T 9 < T U U U U U U U U U U U U U U U U U U U U U U Y z   Z U P U U U U U ",
"K U U U U K U U U U U H H T 9 < Y H U U U U U U U U U U K U U U U U U L U U H Y z   Z Y K U U U U U ",
"U U U U U U U U U U U U P T 9 < T K K K U U K U U U U U U U U U U U U U U K U Y l . Z U K U U K U U ",
"U U U U K U U U K U U U K T 0 1 T H U U U U U U K U U U U U U U U U K U U U K Y x   D U U U U U U U ",
"U U U U U U U U U U U K U U : % Z U U U U U U U U U U U U U U K U U U U U K U U 0   d U H U U U U U "
};
