/* XPM */
static char *ab0ac09a4def4c0ed58dcd9059764a16Cwh9vYZEUoTpGPpd[] = {
/* columns rows colors chars-per-pixel */
"50 50 216 2 ",
"   c #14011E",
".  c #0B0125",
"X  c #06012D",
"o  c #0D002C",
"O  c #130024",
"+  c #1B0026",
"@  c #13002B",
"#  c #1B002D",
"$  c #050134",
"%  c #0C0033",
"&  c #04003D",
"*  c #0D003A",
"=  c #130033",
"-  c #1B0034",
";  c #13003B",
":  c #1C003B",
">  c #220025",
",  c #290026",
"<  c #23002D",
"1  c #29002C",
"2  c #230034",
"3  c #2B0034",
"4  c #24003C",
"5  c #2B003B",
"6  c #340035",
"7  c #3A0035",
"8  c #33003C",
"9  c #3B003C",
"0  c #44003B",
"q  c #490038",
"w  c #5A003D",
"e  c #74003E",
"r  c #040044",
"t  c #0D0043",
"y  c #02004E",
"u  c #0C004C",
"i  c #140043",
"p  c #1C0044",
"a  c #13004B",
"s  c #1C004B",
"d  c #0C005A",
"f  c #140054",
"g  c #1B0052",
"h  c #13005B",
"j  c #1C005A",
"k  c #240044",
"l  c #2B0043",
"z  c #23004B",
"x  c #2B004C",
"c  c #330044",
"v  c #3B0044",
"b  c #33004B",
"n  c #3B004B",
"m  c #240053",
"M  c #2B0053",
"N  c #25005B",
"B  c #2C005B",
"V  c #330053",
"C  c #3C0053",
"Z  c #35005A",
"A  c #3C005B",
"S  c #0C0063",
"D  c #190066",
"F  c #240065",
"G  c #2B0063",
"H  c #2C0069",
"J  c #310066",
"K  c #3C0063",
"L  c #3A006D",
"P  c #360075",
"I  c #430044",
"U  c #4B0043",
"Y  c #42004B",
"T  c #4C004C",
"R  c #54004D",
"E  c #580048",
"W  c #430053",
"Q  c #4B0053",
"!  c #45005B",
"~  c #4C005B",
"^  c #530054",
"/  c #5B0053",
"(  c #54005B",
")  c #5C005C",
"_  c #640046",
"`  c #75004A",
"'  c #630053",
"]  c #6B0054",
"[  c #64005C",
"{  c #6D005B",
"}  c #710054",
"|  c #7A0057",
" . c #73005C",
".. c #7C005C",
"X. c #450064",
"o. c #4C0063",
"O. c #44006B",
"+. c #4A006B",
"@. c #520064",
"#. c #5B0063",
"$. c #54006D",
"%. c #5D006B",
"&. c #440071",
"*. c #490071",
"=. c #4D007C",
"-. c #530073",
";. c #570075",
":. c #5E007B",
">. c #630063",
",. c #6B0064",
"<. c #64006C",
"1. c #6C006B",
"2. c #720064",
"3. c #7C0065",
"4. c #74006B",
"5. c #7A006B",
"6. c #6E0073",
"7. c #630079",
"8. c #740072",
"9. c #7D0072",
"0. c #74007C",
"q. c #7C007B",
"w. c #81004E",
"e. c #83005B",
"r. c #890059",
"t. c #990055",
"y. c #A80057",
"u. c #840063",
"i. c #8F0063",
"p. c #83006C",
"a. c #8C006C",
"s. c #970065",
"d. c #94006D",
"f. c #830072",
"g. c #8C0075",
"h. c #84007B",
"j. c #8C007A",
"k. c #930074",
"l. c #9A0074",
"z. c #94007B",
"x. c #9C007B",
"c. c #A50067",
"v. c #BC006C",
"b. c #A30075",
"n. c #A90074",
"m. c #A3007B",
"M. c #AB007E",
"N. c #B3007C",
"B. c #B9007A",
"V. c #C80076",
"C. c #DD0072",
"Z. c #4D0086",
"A. c #660081",
"S. c #750082",
"D. c #790088",
"F. c #840081",
"G. c #84008A",
"H. c #8C008A",
"J. c #930084",
"K. c #9C0084",
"L. c #93008D",
"P. c #9A0089",
"I. c #850096",
"U. c #9E0095",
"Y. c #980098",
"T. c #A60083",
"R. c #AB0082",
"E. c #A5008A",
"W. c #AD008D",
"Q. c #B30082",
"!. c #BA0084",
"~. c #B2008C",
"^. c #BA008D",
"/. c #A20094",
"(. c #A2009A",
"). c #AB0099",
"_. c #B30095",
"`. c #BE0093",
"'. c #B4009B",
"]. c #BA009D",
"[. c #8C00AA",
"{. c #9D00B8",
"}. c #A700A6",
"|. c #AA00AA",
" X c #B900A4",
".X c #BA00AC",
"XX c #AB00B9",
"oX c #BA00B3",
"OX c #C30085",
"+X c #D80087",
"@X c #C50095",
"#X c #C2009A",
"$X c #CA009F",
"%X c #D5009C",
"&X c #DE0098",
"*X c #E50085",
"=X c #E60095",
"-X c #C800A7",
";X c #D400A5",
":X c #D900A9",
">X c #CB00B7",
",X c #D200B5",
"<X c #EA00A3",
"1X c #EB00A8",
"2X c #E300BB",
"3X c #EA00B9",
"4X c #F300B7",
"5X c #B000C3",
"6X c #C400C6",
"7X c #DA00CF",
"8X c #EC00C3",
"9X c #EB00C6",
"0X c #F500CE",
"qX c #E500D4",
"wX c #FA00D8",
"eX c #F400E8",
/* pixels */
"@ o X * ; ; % = ; ; * & i % X . O @ # % + + ; * * @ % . . o . . X & X @ o o % = @ # @ O @ = % * i t ",
"i ; * & & & & & % o $ $ $ $ @ = - - 4 4 2 4 k i ; = % X . . X X X X X % X X @ ; k z m z z p i a u t ",
"3 3 4 - # O . . O O     + > , 2 c 9 U T T 0 0 8 2 , 1 # @ o @ O . O = X # 3 < 3 v I b 5 6 c v 5 4 - ",
"5 5 k : = = X % % O @ # + > > 4 8 7 I U U 0 9 8 l 2 # # ; ; @ o . @ = = # < 2 4 b b l c v v V x k : ",
"b Y n l i # O * * = z M x @ 8 I T n R } { E T U 0 c 2 2 ; - 4 k : # 3 3 3 - v R / / ' @.n ) @.! m - ",
"Y T n x g : - a a ; z x l - v Q ^ 8 I ' ,.^ Q Q 9 3 3 3 : - : - = = 2 2 b l U T / ] ..<.T [ ) X.G l ",
"+.Z V c b x x 4 : ; + > , 6 8 Y _ ` p.f.k.d.2.^ U 0 7 3 2 2 # 4 5 3 5 b Y U E T ) 4.p.f.A.O.! ~ ~ A ",
"o.+.I v b V l 4 k ; : 4 5 8 8 W e.t.n.R.M.n.u.' E q q 7 1 1 2 p x 3 x Z W T ^ ~ } c.B.n.D.S.{ / @.X.",
"A.$.Z l 4 p i p k l 4 k n T ( o.k.!.OXE.~.`.Q...U ' U 8 5 c l l i k c C A C T 9.T.^.Y.}.}.I.:.! b M ",
"l. .C 8 1 > # 3 3 8 5 l Y ^ ,.6.N.=X=X#X;X3X@Xq.%.%.W l 4 b M x z 5 v Y Y c { n.=X=XE.<X<X+XS./ 0 6 ",
"{ { @.n 5 l 4 : k 4 5 b b Q { h.k.%X7XqX,X^.~.K.5.[ W C V m k k l 4 8 b Z $.S.Y.}.6X>X-XW.Q.E.4.( C ",
"f.a.` w 0 7 6 k 4 1 6 v T _ u./.K.+X1X:X=X;X*XV.s.| E q 7 3 3 6 3 6 7 q Y e.V.1X0XwXeX4X,X&XC.y.w._ ",
"q.<.W b l l : m z p z p n O.Z.[.5X}. XoX>X7X XD.7.o.n l : p z p i z k b O.8.g.K.U.'.}.)..X(.h.,.( W ",
"*Xn./ [ ^ n 4 l v v c c [ k.}.{.XXeXeX6X3XwX1XG.m.s.{ Y 8 v n c : n T { 4.b.b.:X9X8X-X8X4X4XW.Q.k.1.",
"N.5.( Q c l : 4 5 4 l M W [ L.5XXX|.>X6X(.).H.[.I.#.W x 5 3 4 l - b n ( #.h.e.B.`.'. X@X$X'.P.k.,.! ",
"#Xx.f.( Y l b n Z V W / 5.1.W.<X4X3X9X0X2X(.-X%X_.9./ Q n 4 2 2 4 5 n >.x.#X-X-X-X.X,X2X2X:X:XT.p.O.",
"Q.k.[ ^ v k k k m m V Y ' 0.p.R.^.`.`.#X#X.X!.v.l.1.^ Y 8 k - + , 4 n ^ 5.J.(.'.T.Y.J._.].#XR.l.,.X.",
"x.4.Q #.Q n 2 c v c 4 ) f.W.q.U.;X,XU..X,X9X/.Q.B.f.~ b b b l 5 Y T W W 3.a.x.Q.OX%XH.i.^.T.0.E.j.<.",
" .^ -.) v x : k k c x @.1.f.h.L.@X].|.'.`.W./.P.d.4.! n V x p k b v Y T } e.a.J.b.M.q.2.a.8.I.z.1.O.",
"j.a.5.) W C c s g C ( [ U b x.B.x.).,X#XOXh.G.K.8.<.o.W c @ # # - = V ^ ) 8.F.Y.P.E.@XL.E.^.^.T.q.<.",
">.[ ) C c l : g s c C ~ W $.1.e.3.8.h.g.c.k.6. .>.@.! b m g - # 3 3 5 Y ! ,.g.l.l.h.S.D.1.4.4.<.@.! ",
",.>.c C W V m x b V M C 6.j.#.( k.j.9.%.a.s.J.<.<.#.Q l l c k : s M n / [ ~ <.f.f.j.8.j.g.z.$.6.0.$.",
"3./ Z +.C C x x b C X.M M n >.1.r.a.l.F.c.c.>.$.<.' ^ 8 6 5 3 - k M v / ] [ <.k.k.m.h.4.p.1.;.7.7.+.",
"X.~ $.A m z p p l 8 n W Q ^ { >.~ ,.3.L.5. .,.6.o.Y Y l 2 4 4 l l n n l Y [ ) ( 1.8.D.;.%.7.G.;.O.Z ",
"' [ [ Y c 5 2 : 9 6 q q w ` e [ f.e.i.d.d.r.r. .) w U 8 l k 5 6 1 v T b R ] ] [ p.p.1.#. .5.9.>.( C ",
"x C Z m p * ; p ; : 8 n Y 6 0 >.[ Y R .. .' R / ) n 5 4 i k l c 4 4 n ^ I l Q ~ ( X.@.+.Z @.+.L j s ",
"~ 4.<.! m 2 1 m g l T ^ ^ 9 ,.p.f.~ ' u.p.{ / { ' T v I k c b C c c R / ) n 5.a.d.d.n.0.~ g.F.7.P c ",
"X.l z g J m s N F p 4 5 8 n c V Y R Y W ~ ~ X.M 5 4 5 3 z : ; : l x c c o.( ^ n C @.@.:.*.c A P Z.H ",
"&.H A n ~ A V n V p 3 8 7 U v Q w.e.5.1.2.p.,.^ ^ U 0 8 8 8 5 b Q 0 Q #.[ ] { Q ( [ [ 8.=.~ ) ) <.;.",
"J O.x k g s a p z m p p k l x V Q U Y C n T W I 8 7 9 6 2 2 4 z s p m G B B M Z n W C B L K M m F D ",
"*.K f : - ; ; p c n x x ( ) 1.A ( #.] v ^ <.>.Q 8 ~ Y 4 : b C C s l A ! A x n >.,.#.z o.=.=.F x l p ",
"Y v M 5 2 2 - : l 4 l x C W A C n T ^ Q W ! ! B B M z s p s g z N c c b x k Z C C V l ^ T W &.b z l ",
": v C c 4 4 5 ; p 4 9 n C v v W 4 U Q ) R 8 I T T v b b V s : l b 8 8 n M A Z O.O.&.$.n k C @.n b V ",
"k x 5 2 3 2 2 g k 2 4 k 5 c M J x 5 9 5 8 x c n V x 3 2 2 - 2 4 2 4 5 5 k c I C V Z Z b M Z b l l l ",
"x m i k k z ; m x x p p c j D D H M ! m A @.C s z M k i ; s g s u z z z G N z z m g s M Z Z f M M G ",
"Y b 4 c x l : k l c l k c n A G H X.X.M v Y c s l c c 4 - c c c : V n Y c c 4 Y ~ n 4 n Y W z C Z Z ",
"x k z p : * k k s k k z z ; V +.A M V A l i a Z N s : a i = - - 4 : 4 z k x 5 l x z V x M N N N g h ",
"Z b c l 4 : k z m M M c c p c n n n n Y n k c c V x l l 4 : # + + # k l C K L Z V z x Z K Z V M x j ",
"p p ; p p p % p g p * : 4 V i p x z i z m Z k 4 4 z i ; : i ; = 2 p i = : i s a : g t ; s m a z g j ",
": = i z k k = l l 4 ; V V A k m A C m V Z ! z x b b p : z x s 4 b c : ; 5 4 4 l 5 b : # 4 i f M N N ",
"; ; s p : i i t t p z z = ; z k k z m k k i s s i s s ; i X o = = % ; - # ; i s s i : * ; s f m g h ",
"k k x z p 4 4 t a z b x @ % z 8 : k x l 5 : ; 4 : p p z p % @ + + @ = : ; k z M l x x s s x x N N m ",
"% ; * ; i i t a s : i i s g i % : ; ; % - - ; = i i ; ; i s ; % % * = ; ; ; : i i a u i ; a i u f f ",
": : % z z M p p x m p t k 4 = @ 2 4 : ; 2 1 k i i 4 k @ - - - % ; u : 4 k : i z 4 k ; - 4 p i s G F ",
"i * a a a i t a i : p t & $ ; ; = = = p - - i t ; ; ; = @ @ = ; ; ; ; % = = ; i i a f t u u d f d h ",
"; p z : : : = = 2 # - > 1 < 1 @ : 4 4 x k : 2 4 = < 2 - - : : 2 - 4 k % : 2 - = k p s ; : s M z g s ",
"% ; i * % % o % = @ # @ O O   % - O @ # = + + = ; o o o = ; = = o % ; % @ % @ % * t & * * ; u u r t ",
"$ s g a r $ ; * & * m N s . - 4 : $ = 4 4 = = - : : = : & : k z : - 4 5 - % p p p s p d r s j D S t ",
"; p p i u = # u u * s s i o : ; : . O @ ; = = = @ o @ - ; % ; = = ; = = i ; - : : : 4 f = p m h S ; ",
"d r r a g j f g g & o O O - o * - - i ; i p s * = = = @ : ; = ; p : : p z : : * t u i h S y y h D D "
};
