/* XPM */
static char *_846054e9d6e45b8d7cceb6409424321vOQNe1XybYMk14op[] = {
/* columns rows colors chars-per-pixel */
"50 50 73 1 ",
"  c black",
". c #070100",
"X c #0A0200",
"o c #0B0200",
"O c #120301",
"+ c #140401",
"@ c #170401",
"# c #1A0501",
"$ c #1F0601",
"% c #200602",
"& c #280802",
"* c #290802",
"= c #2C0802",
"- c #2D0903",
"; c #320A03",
": c #330A03",
"> c #350B03",
", c #370B03",
"< c #380B03",
"1 c #3C0C03",
"2 c #3D0C04",
"3 c #430E04",
"4 c #440E04",
"5 c #460E05",
"6 c #4C0F05",
"7 c #4E1005",
"8 c #4F1005",
"9 c #501005",
"0 c #521005",
"q c #551106",
"w c #5A1206",
"e c #621406",
"r c #641407",
"t c #661507",
"y c #6A1507",
"u c #6B1607",
"i c #6D1607",
"p c #761808",
"a c #7B1908",
"s c #7D1A08",
"d c #831B09",
"f c #851B09",
"g c #8B1C09",
"h c #8C1D0A",
"j c #8E1D0A",
"k c #901D0A",
"l c #911E0A",
"z c #951F0A",
"x c #961F0A",
"c c #981F0A",
"v c #9B200A",
"b c #9F210B",
"n c #A1210B",
"m c #A2210B",
"M c #A3220B",
"N c #A6220B",
"B c #A7230B",
"V c #A7220C",
"C c #A8220B",
"Z c #A8230C",
"A c #A9230C",
"S c #AC230C",
"D c #AD240C",
"F c #AF240C",
"G c #B1240C",
"H c #B1250C",
"J c #B3250C",
"K c #B5250C",
"L c #B7260D",
"P c #BA260D",
"I c #BC270D",
"U c #BE270D",
"Y c #C1280D",
/* pixels */
"ZZZZZZZZANZv& >CNNZZZZZZZZZZZZZZNNDu @vZCZZZZZZZZZ",
"ZZZZZZZZANNJ5 wLNNZZZZZZZZZZZZZZZNDk #NZCZZZZZZZZZ",
"ZZZZZZZZANND5 qLNCZZZZZZZZZZZZZZNNDg #VZNZZZZZZZZZ",
"ZZZZZZZZANNJ3 qLMNZZZZZZZZZZZZZZZVDj #MZCZZZZZZZZZ",
"ZZZZZZZZZCND5 qJNVZZZZZZZZZZZZZZZNDj #NZNZZZZZZZZZ",
"ZZZZZZZZZNNJ5 qJMZZZZZZZZZZZZZZZZNDj #NZCZZZZZZZZZ",
"ZZZZZZZZNNNL4 qLNZZZZZZZZZZZZZZZZNDj #NZNZZZZZZZZZ",
"ZZZZZZZZNNND5 qJMNZZZZZZZZZZZZZZZNDj #NZCZZZZZZZZZ",
"NNNNNNNNNNND3 qLMNNVNNNVNNNNNNNNNNSj #MVNNNVNNNNNN",
"DDDDDDDDDDSL5 wIZDDDDDZDDDDDDDDDDZJz $SDDDDDDDDDDD",
"jjjjjjjkjjkd# -jjjkjjjgjjjjjjjjjjjz0 Xdkjjkjgjjjjj",
"                      .                           ",
"------------;-;----=.  %;----------;-;----;%  .=--",
"ZZZZZSZZZZSZZZZZZZZDj 3SZSZZZZDZZZSZZZSZZZCD2 fDZZ",
"CCNCCCNCCNCNCCNCCNCZN 0LNNNCNCCCNCNCCCNCNNZLq NSCC",
"CCCNCCCNCCNCCCCNNCNDM 8LNCCNCNCNCNCNCNCNNNNJ0 MZCC",
"ZZZZZZZZZZZZZZZZZZCZM 0LMZZZZZZZZZZZZZZZZNNL0 MZNZ",
"ZZZZZZZZZZZZZZZZZZCZM 8LNZZZZZZZZZZZZZZZZZML0 MZNZ",
"ZZZZZZZZZZZZZZZZZZCZM 8LMZZZZZZZZZZZZZZZZZML8 MZNZ",
"ZZZZZZZZZZZZZZZZZSCZM 8LMZZZZZZZZZZZZZZZZZMJ0 MZNZ",
"ZZZZZZZZZVVZZZZZZCNAM 0LMNZVZVVZZZZZZZZVZZMJ9 MZNN",
"NNNMNNNNNNNNNNNNNCNNM 0JMNNNNNNNNNNNNNNNNNML0 bNNN",
"JJJDJDJDJJJDDJJJJJDLN 0YAJJJDJJDJJDJDJJJDJJP8 VLJJ",
"tutttuttutttttuttttu2 #ttuuttitttttttuttttue@ 1utt",
"                                                  ",
"XXXXXXX   XXXXXXXXXXX.XXXXXXXXXX.    XXXXXXXXXXXXX",
"bMbMbvA8 iMbNMbMbbMbMbMbbMbMbNbbb- .ivbMMbMbbbMbMM",
"ZZZZZNLu jJAZZZZZAZZZAAAAZZZZAANPq $SDZZZZZZZZSZZZ",
"NNNNZNJe jANNNNNNNCCNNNNNNNNNNNNHq $MZNCCNCNCNCNNN",
"ZZZZZNLr jDNAAAZAAAAZZAAAZAZZZNNLq $NZNZZZZZZZZZZV",
"ZZZZNNJr jDNAZZZZZZZZZZZAZZZZZZNJq $NZNZZZZZZZZZZZ",
"ZZZZZZJr jDNZZZZZZZZZZZZZZZZZZVMLq $NZCZZZZZZZZZZZ",
"ZZZZZVDt jDNAZZZZZZZZZZZZZZZZZZMLq $NZNZZZZZZZZZZZ",
"ZZZZVVJt jANAZZZZZZZZZZZZZZZAVVVJ0 $NZNZZZZAZZZZZV",
"NNNNVVJr gZNNNNNZZZANNNNNNNNZZZZJq $MVZZNCNNNNNNVV",
"DDDADZPu vLZDDDDDDADDDDDDDDDDDAZPq $AJZDADDDDDDDDD",
"jjjgggk2 8gjjjjgjghhjjjjjjgjggjga$  wgjjjgjjjjjjjg",
"  X           . .         .    .         .       .",
"    .  . .           .      .     . .          .  ",
"jjjjgjjggjgjjg$Opvjggjgjjjjjjgjgjjgjggjj< 0gjgjggj",
"DDDDDDDADDDDAU8;PNDDDDDDDDDDDDDADDDSDDSIa bDASSDDD",
"NNNNNNNNVZNNML5;JNNNNNNNNNNNNNNNNNNNNNNZp.vVZZNZNN",
"ZZZZAAZZZZZVML8;LNNZZZZZZZZZAAZZZZZZZNNJp vDNZZZZZ",
"ZZZZZZZZZZZZNP5;JNNZZZZZZZZZZZZZZZZZZZNSp.kDNZZZZZ",
"ZZZZZZZZZZZZML8;JNNAZZZZZZZZZZZZZZZZZZNDp.zSCZZZZZ",
"ZZZZZZZZZZZZMP5;JNNNZZZZZZZZZZZZZZZZZZNJp.zSNZZZZZ",
"ZZZZZZZZZZZNML5;LNNAZZZZZZZZZZZZZZZZVVNJp.cSNZZZZZ",
"ZZZZZZZZZZZNML8;JNNNZZZZZZZZZZZZZZZZVNNJp zZCCZZZZ",
"ZZZZZZZZZZZAMP8;LMNZZZZZZZZZZZZZZZZZZZNJs.cDCZZZZZ",
"ZZZZZZZZZZZNAN=@vANNZZZZZZZZZZZZZZZZZNCV6 wCZCZZZZ"
};
