/* XPM */
static char *result[] = {
/* columns rows colors chars-per-pixel */
"50 50 142 2 ",
"   c #010100",
".  c #0B0603",
"X  c #0E0805",
"o  c #060A0D",
"O  c #170600",
"+  c #100904",
"@  c #140D09",
"#  c #1B0F08",
"$  c #1C120C",
"%  c #1B1410",
"&  c #26150A",
"*  c #28160C",
"=  c #2D190D",
"-  c #391E0D",
";  c #241B16",
":  c #26201D",
">  c #3E2312",
",  c #35251B",
"<  c #232629",
"1  c #442614",
"2  c #472816",
"3  c #4E2C17",
"4  c #4E311E",
"5  c #553019",
"6  c #5C341B",
"7  c #67391D",
"8  c #683B1F",
"9  c #653F27",
"0  c #6D3E21",
"q  c #744222",
"w  c #7B4625",
"e  c #4B4542",
"r  c #595C5E",
"t  c #7A6456",
"y  c #6A6866",
"u  c #777472",
"i  c #944C1F",
"p  c #824A27",
"a  c #894E29",
"s  c #954C20",
"d  c #995226",
"f  c #93532C",
"g  c #9A572E",
"h  c #9D592F",
"j  c #9D5B33",
"k  c #A25C30",
"l  c #A0623C",
"z  c #B56736",
"x  c #B86937",
"c  c #BC6B39",
"v  c #CE743E",
"b  c #D3773F",
"n  c #D4783F",
"m  c #E27A39",
"M  c #F07D36",
"N  c #AD7A5B",
"B  c #9A7E6D",
"V  c #D57940",
"C  c #D97B42",
"Z  c #D37E4A",
"A  c #E07F43",
"S  c #F0813D",
"D  c #FF893F",
"F  c #B28264",
"G  c #E48144",
"H  c #ED8646",
"J  c #E3874F",
"K  c #EF8848",
"L  c #F38643",
"P  c #FE8B43",
"I  c #F28A49",
"U  c #FC8F4B",
"Y  c #FF9345",
"T  c #FF914D",
"R  c #FF9A4C",
"E  c #FF9551",
"W  c #FF9B52",
"Q  c #FD9758",
"!  c #FE995B",
"~  c #FFA256",
"^  c #FFA558",
"/  c #ED9C69",
"(  c #F49D67",
")  c #FF9E62",
"_  c #FFA066",
"`  c #F3A06D",
"'  c #FEA36B",
"]  c #FFA771",
"[  c #FFAB74",
"{  c #FFAD7B",
"}  c #FFB27C",
"|  c #8C8F91",
" . c #9F9995",
".. c #A3A4A6",
"X. c #A3A6A8",
"o. c #ADADAD",
"O. c #B1AEAD",
"+. c #B0B1B2",
"@. c #BEB6B1",
"#. c #B8BABC",
"$. c #CEA790",
"%. c #CEA992",
"&. c #FFB284",
"*. c #FFB984",
"=. c #FFB68A",
"-. c #FDB88E",
";. c #FFBD95",
":. c #FEBF99",
">. c #C8BDB7",
",. c #FFC197",
"<. c #FEC49D",
"1. c #D9C2B4",
"2. c #FBC4A3",
"3. c #FFCAA5",
"4. c #FDCAAB",
"5. c #FFD2AE",
"6. c #E1C7B7",
"7. c #FECEB1",
"8. c #FFD1B5",
"9. c #FED4BB",
"0. c #C1C4C5",
"q. c #D2C9C3",
"w. c #CECFD1",
"e. c #DFD8D3",
"r. c #D7DADB",
"t. c #DCDCDD",
"y. c #FBD8C3",
"u. c #FEDFCC",
"i. c #FEE1CF",
"p. c #FFE4D2",
"a. c #FFE7D8",
"s. c #FFEADD",
"d. c #E3E4E6",
"f. c #E9E5E3",
"g. c #ECECEC",
"h. c #FFECE1",
"j. c #F2EDEA",
"k. c #FFF0E7",
"l. c #FEF5EE",
"z. c #FEF6F1",
"x. c #FFFAF6",
"c. c #FEFFFE",
/* pixels */
"T T T T T U T T T U T H -   5 T T T T T T T T U T T T T T T T T U U E k   # H T T T T T T T T T T T ",
"T T U T T T T T T U U E 0   a W U T T T T U T T T T T T U T U T T U E C   = U T U T T T T U T U T T ",
"T U T T T T T U T T T T 8   p W U U T T T T U T T T T U E U T T T U T n   & U T U T U T T T U T U T ",
"T T T T U T T T T U T W 8   p W U T U T T T T T U T T T U T T T T T R C   * U T U T T T T T T T T T ",
"U E T T T T T U T T I W 0   p W I T T T U T T T T U T T T T T T T U E V   * U T T T T T U T T T U T ",
"U U T T T T T T T T T T 0   p W U T T T T T T U U E U T U T U T T U T C   * I U U T T T T T T U E T ",
"T T U T T T T T T T U T 7   p W U T T T T T T T T T T T E U T T T U E V   * U T U T T T T T T T U T ",
"T T T T T T U T T T U E 0   p W U T T U T U T T T T U T U T T T T T T V   * U T T T U T T U T T T U ",
"U U U U T U U T T T U E 0   w W I U T T T T T T U T T T U T U T T U T V   * U T U U T T T T U T U U ",
"E E T E E T T E T T T R 7   a ~ T W T T T E T T U T T E T E T T T T W G   & U E E R T T T E T T E E ",
"C V C C V C C V V V G J ,   > V C C C V V V V C J J C V C V C C V V A w   ; Z G V V C C V V V V C C ",
"                    o w.c.o.              .   y c.c.y                   X.c.w.                      ",
"1 1 1 1 1 1 1 1 2 1 > q.c.g.5 1 2 1 1 > .     O.c.c.@.- 2 1 1 1 1 1 1 4 f.c.>.> 1 1 1 =     . > 1 1 ",
"T T T T T T T T T Q P 3.c.c.[ U T T T W V   9 z.c.c.l.Q T T T T T T U [ c.c.<.P E E T E 6   v E T T ",
"T T U T T T U T T T P =.c.c.,.P T T T T E   t c.c.c.c.{ P T T T U E P ;.c.c.{ P T U U W w   T T T T ",
"T U T U T T T U T T U ! z.c.9.P T T T T U   u c.c.c.c.2.P T T T U T P 9.c.z.Q U T T T W w   I T T U ",
"T T T T T T U T T T T T s.c.h.E U T U T I . #.c.l.z.c.p.U T T T T U T s.c.p.U U T U U W w   I E T T ",
"T U T T T T T T T T T P 8.c.x._ U T T T S : g.c.4.7.c.z.! T T T T U ) x.c.4.P E T T U W w   I R U T ",
"T T U T U T T T T U T D ;.c.c.=.P T T T m r c.c.{ =.c.c.=.P T U T P =.c.c.=.P T T T U W w   U T T T ",
"T U T T T T T U T T U U ' c.c.4.P T T W n  .c.z.Q ! x.c.7.P T T T P 4.c.x._ U T T T T W w   I T U T ",
"T T U T U T T T T U T U E k.c.p.U U T T I e.c.i.U U a.c.s.E U T T U i.c.h.T T U T U T W w   I T U U ",
"U U U U U U U U U U U U I y.c.z.Q U T U ' x.c.<.P P 4.c.x.' U U I Q l.c.9.P U U I U I Q w   I T U U ",
"W W W W W W W W W W W Q Y 3.c.c.} Y ! Y ,.c.c.} Y T *.c.c.,.Y Q T } c.c.<.Y W W W W R ^ q   U W R W ",
"h h h h h h h h g h h h d F c.c.%.s k d 1.c.f.j g g l j.c.6.d k s $.c.c.N d j h h h j d $   6 k g h ",
"                          o g.c.X.      r.c. .        o.c.t.      ..c.d.o                           ",
"+ X + + X + +       X + + . >.c.t.%   e c.c.y   @ @   u c.c.e   % t.c.+.  . + X X + X X X X X X + X ",
"I I I H I H T q   k I H I S 4.c.c.` M 2.c.x.( L I K I ` c.c.2.M / x.c.| i I I I I I I I I H I I I I ",
"T T T T T T W k   G W T E U =.c.c.;.D p.c.a.E T T T Y E h.c.p.P ;.c.c.t L W T T T T T T T T T T T T ",
"U U T U T I W g   V T T T U ) x.c.8.E z.c.4.P U T U T P 8.c.z.E 7.c.g., L T T U Y T U T T U T U T T ",
"T T T T T T W g   C E T T U E h.c.i.&.c.c.} P E U T T D =.c.c.&.u.c.0.& U T U T E T T T U T T T T T ",
"T T U T T U W g   V T U U T P 9.c.z.s.c.l.! U U T T U U ) x.c.s.l.c.| O T T T T T T T U T T T T T U ",
"T T T T T U W g   V E U T T D :.c.c.c.c.u.U T T T T T T U p.c.c.c.c.r O E T U T U T T T T T U T T T ",
"T T T T T T W g   V T T T T U ' c.x.x.c.<.P T T T T T T P 3.c.x.c.x.< # U T T T T T T T T U T T T T ",
"T U T T T I W g   V T T T T U Q x.c.c.c.] P T T T U T T P { c.c.c.d.  & U T T T T T T T T T T T T T ",
"U U U U T T W g   n T T U T T U -.3.3.<.E U U T U T U U T E 2.2.5.B   = I T T T U T U T T T U U T T ",
"E R T T T T W k   G W T T R T T Y P P P T E T E T T E E T T P P Y w   = R E T T T E T E T T E T T E ",
"V V C V n V C 6   w n C V C V V V V V Z V C V V V V C V n V V C x =     a b C C n V V V V V V V V V ",
"                                                            .                     .                 ",
"              .   .                                                   .                             ",
"C V V V C n C n b b C n n b = $ v C n n n C n V V V C V C n C n C n n n V n C n 5   w n C V V V C C ",
"T T E T T T T T T T T E T ^ q 3 ~ T T E T E T E E T T E T E E E E T T T T E T W x   K W T T R E T T ",
"T T T U T T T U T T U U U W q 3 R U T U U T U U T U T U T U U U T T T U T U T E x   G T T T U T U U ",
"T T T T T T T T T T T U I ~ 0 3 W T T U T T T T T T T T T T T T T T T T T T U W x   H T U T T T U T ",
"T T T T T T T T T T T T U W q 3 Q U U T T T T T T T U T T T U T T T T T T T U E z   G T U T T T T T ",
"T T T T T T T U T T U T U W q 2 W U U T T T U T T U T T T U T T T U T T T T U W x . G R T T T T T T ",
"T T T T U T T T T T T T U ~ q 3 W U U T T T T T T T T T T T T T T T T T T T U E z   G T U T T T T U ",
"T T T T T T T T T U T T I ~ 8 3 W U U T U T T T T T T U T T T T T T T U T U U W z   G T T T T U T T ",
"T T U T T T U T T T T T U ~ q 2 W U T U T T T U T T T T U T T T U T T T T T U E z . G T U U T T T T ",
"T U T U T T T U T U T T U W q 3 W T T T T T U T U T T T U T T U T T T T T T U W c   I T T T T T T T ",
"T T T T T T T T T T T U T T > & G T T T T T T T T T T T T T T T T T U T T U U T q   f U U T T T T U "
};
